<svg fill="#000000" xmlns="http://www.w3.org/2000/svg"  viewBox="0 0 30 30" width="30px" height="30px"><path d="M12.688 11.833L11.335 15.901 14.145 15.901 12.805 11.833z"/><path d="M24,4H6C4.895,4,4,4.895,4,6v18c0,1.105,0.895,2,2,2h18c1.105,0,2-0.895,2-2V6C26,4.895,25.105,4,24,4z M15.389,19.818l-0.834-2.522h-3.63l-0.848,2.522H8.293l3.5-9.864h1.982l3.507,9.864H15.389z M20.509,19.818H18.82v-7.479h1.688V19.818z M19.661,11.123c-0.615,0-1.046-0.396-1.046-0.937s0.431-0.937,1.046-0.937c0.622,0,1.046,0.396,1.046,0.937S20.283,11.123,19.661,11.123z"/></svg>