<svg fill="#000000" xmlns="http://www.w3.org/2000/svg"  viewBox="0 0 24 24" width="24px" height="24px"><path d="M9.681,9.302H8.565v2.512h1.116c0.744,0,0.93-0.558,0.93-1.209C10.612,9.953,10.333,9.302,9.681,9.302z"/><path d="M19,3H5C3.9,3,3,3.9,3,5v14c0,1.1,0.9,2,2,2h14c1.1,0,2-0.9,2-2V5C21,3.9,20.1,3,19,3z M9.681,13.116H8.565v2.791H6.891V8h2.698c2.326,0,2.605,2.14,2.605,2.605C12.193,12.465,10.891,13.116,9.681,13.116z M15.17,16c-1.488,0-2.233-1.023-2.233-1.953h1.488c0,0.744,0.558,0.837,0.744,0.837c0.372,0,0.651-0.186,0.651-0.558c0-0.837-2.698-0.744-2.698-2.605c0-1.395,1.302-1.767,2.047-1.767c1.395,0,2.14,0.837,2.14,1.86h-1.581c0-0.465-0.186-0.744-0.558-0.744c-0.279,0-0.558,0.186-0.558,0.558c0,0.93,2.698,0.651,2.698,2.698C17.309,15.721,15.914,16,15.17,16z"/></svg>