<svg xmlns="http://www.w3.org/2000/svg"  viewBox="0 0 48 48" width="48px" height="48px"><path d="M40.86,5.11v37.78c0,1.17-0.95,2.11-2.12,2.11h-0.09l-28.19-1.27c-1.09-0.05-1.97-0.93-2.01-2.03L7.15,7.03	C7.1,5.89,7.98,4.92,9.13,4.85L32.24,3.4l-0.2,4.76c-0.01,0.18,0.13,0.32,0.3,0.33c0.07,0,0.14-0.02,0.2-0.06l1.85-1.41l1.56,1.23	c0.14,0.11,0.34,0.09,0.45-0.05c0.04-0.06,0.07-0.13,0.06-0.2L36.3,3.15L38.61,3c1.16-0.07,2.17,0.81,2.24,1.98	C40.85,5.02,40.86,5.07,40.86,5.11z M22.8,17.87c0-1.68,1.25-1.9,1.99-1.9c0.78,0,2.19,0.13,2.07,3.27c0,0.82,5.53,0.43,6.27-0.15	c0-5.6-3-8.54-8.49-8.54c-5.5,0-8.58,2.99-8.58,7.47c0,4.48,3.48,6.44,6.44,8.1c2.19,1.23,4.08,2.29,4.08,4.1	c0,1.2-0.58,1.9-1.87,1.9c-1.67,0-2.34-0.85-2.26-3.76c0-0.63-6.39-0.83-6.59,0c-0.49,7.05,3.9,9.09,8.93,9.09	c4.88,0,8.7-2.6,8.7-7.3c0-4.91-3.68-6.86-6.72-8.47C24.63,20.55,22.8,19.58,22.8,17.87z"/></svg>