<svg fill="#000000" xmlns="http://www.w3.org/2000/svg"  viewBox="0 0 30 30" width="30px" height="30px"><path d="M20.149,13.708c-1.012,0-1.723,0.725-1.799,1.818h3.521C21.836,14.419,21.166,13.708,20.149,13.708z"/><path d="M24,4H6C4.895,4,4,4.895,4,6v18c0,1.105,0.895,2,2,2h18c1.105,0,2-0.895,2-2V6C26,4.895,25.105,4,24,4z M14.01,19.992l-0.834-2.523H9.545l-0.848,2.523H6.914l3.5-9.865h1.982l3.506,9.865H14.01z M23.567,16.683h-5.223v0.088c0.041,1.244,0.758,2.023,1.873,2.023c0.84,0,1.422-0.307,1.668-0.861h1.605c-0.32,1.361-1.559,2.209-3.322,2.209c-2.201,0-3.527-1.457-3.527-3.863s1.348-3.916,3.514-3.916c2.133,0,3.412,1.414,3.412,3.773V16.683z"/><path d="M11.309 12.007L9.956 16.074 12.766 16.074 11.426 12.007z"/></svg>